<?xml version="1.0" encoding="utf-8"?>
<!-- Generator: Adobe Illustrator 19.0.0, SVG Export Plug-In . SVG Version: 6.00 Build 0)  -->
<svg version="1.1" id="Layer_1" xmlns="http://www.w3.org/2000/svg" xmlns:xlink="http://www.w3.org/1999/xlink" x="0px" y="0px"
	 viewBox="0 0 500 500" style="enable-background:new 0 0 500 500;" xml:space="preserve">
<style type="text/css">
	.st0{fill:#B7B5B6;}
	.st1{fill:#231F20;}
	.st2{fill:#B09246;}
	.st3{fill:#FFFFFF;}
</style>
<g id="XMLID_1_">
	<polyline id="XMLID_3_" class="st0" points="260.7,328.3 217.9,328.3 175.8,297.1 180.9,276.7 136,276.7 93.1,246.3 116.7,150 
		67.5,111.2 275,111.2 262.7,161.4 308,161.4 351.9,192.1 344.5,222 432.5,222 416.6,286.7 399.3,286.7 387.6,334.5 358.5,334.5 
		356.3,342.4 340.1,342.4 328.7,388.8 245.8,388.8 260.7,328.3 	"/>
	<polyline id="XMLID_4_" class="st1" points="270.9,320.2 220.5,320.2 185,293.8 191.2,268.6 138.6,268.6 102.3,242.9 125.8,146.9 
		90.8,119.2 264.7,119.3 252.1,170.5 254.1,169.5 305.4,169.5 342.8,195.5 334.2,230.1 422.2,230.1 410.3,278.7 393,278.7 
		381.3,326.4 335.7,326.4 322.4,380.8 256.1,380.8 270.9,320.2 	"/>
	<polyline id="XMLID_5_" class="st2" points="321.2,229.6 281.4,229.6 287.4,205.5 243.3,205.5 257,216.3 240.3,284.2 267.9,284.2 
		275.5,253.8 300.4,253.8 286.6,242.8 405.9,242.8 400.3,265.9 321,265.9 334.8,276.7 331.4,290.5 376.9,290.5 371.3,313.6 
		325.7,313.6 312.4,368 272.4,368 289.6,297.9 272,307.4 224.8,307.4 199.4,288.6 210.2,244.9 189.2,256.5 142.4,256.5 116,237.8 
		139.4,142.2 125.6,131.3 182.1,131.3 157,233.4 184.2,233.4 206.6,142.2 192.8,131.3 249.3,131.3 233.8,194.4 257.2,182.2 
		301.4,182.2 328.3,201 321.2,229.6 	"/>
	<polyline id="XMLID_6_" class="st3" points="288.3,224.2 294.1,224.2 298.6,205.7 292.9,205.7 288.3,224.2 	"/>
	<polyline id="XMLID_7_" class="st3" points="225.7,204.7 205.5,286.5 210.3,290 230.6,208.5 259.9,193.2 307.8,193.2 299.7,187.6 
		258.5,187.6 225.7,204.7 	"/>
	<polyline id="XMLID_8_" class="st3" points="272.2,289.6 239.1,289.6 237.7,295.2 276.5,295.2 284,264.8 295.5,264.8 296.9,259.2 
		279.7,259.2 272.2,289.6 	"/>
	<polyline id="XMLID_9_" class="st3" points="154.5,244.4 192.8,244.4 217.8,142.3 241,142.3 242.4,136.7 208.4,136.7 212.7,140.1 
		188.4,238.8 155.9,238.8 154.5,244.4 	"/>
	<polyline id="XMLID_10_" class="st3" points="126.9,238.9 150.7,142.3 173.8,142.3 175.2,136.7 141.2,136.7 145.5,140.1 
		122.1,235.5 126.9,238.9 	"/>
	<path id="XMLID_11_" class="st3" d="M368.7,301.5c0.4-1.7,0.9-3.5,1.4-5.6c-7.4,0-29.4,0-39.9,0c-0.8,3.1-1.4,5.6-1.4,5.6
		S355,301.5,368.7,301.5"/>
	<polyline id="XMLID_12_" class="st3" points="399.1,248.2 302.2,248.2 306.5,251.6 279.2,362.6 284.9,362.6 311.7,253.8 
		397.7,253.8 399.1,248.2 	"/>
	<polyline id="XMLID_13_" class="st1" points="342.7,332.4 344.7,332.4 345.3,330.4 339.2,330.4 338.5,332.4 340.4,332.4 338,339.3 
		340.4,339.3 342.7,332.4 	"/>
	<polyline id="XMLID_14_" class="st1" points="342.3,339.3 344.6,339.3 347.1,334.2 347.1,334.2 347.4,339.3 348.3,339.3 
		352.2,334.2 352.3,334.2 351.2,339.3 353.5,339.3 355.2,330.4 352.9,330.4 349.3,335.2 349.1,330.4 346.9,330.4 342.3,339.3 	"/>
</g>
</svg>
